<?xml version="1.0" encoding="iso-8859-1"?>
<!-- Uploaded to: SVG Repo, www.svgrepo.com, Generator: SVG Repo Mixer Tools -->
<svg height="800px" width="800px" version="1.1" id="Capa_1" xmlns="http://www.w3.org/2000/svg" xmlns:xlink="http://www.w3.org/1999/xlink" 
	 viewBox="0 0 258.86 258.86" xml:space="preserve">
<g>
	<g>
		<g>
			<path style="fill:#010002;" d="M222.193,84.429c-34.42-34.43-71.811,0-71.811,0v5.862h-8.774v-6.038
				c12.154-4.846,20.781-16.678,20.781-30.581c0-18.231-14.772-32.965-32.974-32.965c-18.221,0-32.974,14.733-32.974,32.965
				c0,13.571,8.197,25.187,19.902,30.258v6.36h-7.904v-5.862c0,0-37.371-34.43-71.791,0c0,0-21.983,14.685-36.648,0
				c0,0,1.475,43.966,54.224,43.966c0,0,23.253,4.416,54.215-9.868v-8.813h7.904v8.041h5.735l1.553,31.05
				c-17.977-0.879-31.773-5.305-31.753-10.61c0.029-4.533,10.063-8.266,24.103-9.751l0.01-1.798
				c-17.332,1.544-29.926,6.038-29.965,11.49c-0.029,5.032,10.542,9.389,25.686,11.431c-11.372,1.837-19.11,5.247-19.11,9.223
				c0,4.279,8.813,7.933,21.494,9.653c-10.435,1.553-17.577,4.67-17.616,8.256c-0.029,3.908,8.09,7.298,19.745,8.891
				c-9.321,1.426-15.701,4.221-15.701,7.445c0,3.361,6.839,6.204,16.687,7.582c-7.249,1.192-12.183,3.429-12.183,5.94
				c0,2.951,6.331,5.442,15.29,6.468c-5.579,0.987-9.399,2.648-9.399,4.67c0,2.736,7.113,5.051,16.424,5.471l0.752,14.987h4.797
				l0.518-14.987c9.399-0.401,16.619-2.667,16.619-5.471c0-2.13-4.045-3.869-10.093-4.807c8.344-1.094,14.177-3.478,14.177-6.312
				c0-2.462-4.367-4.602-11.158-5.852c10.298-1.348,17.459-4.279,17.459-7.728c0-3.175-5.96-5.921-15.056-7.386
				c11.245-1.475,19.081-4.699,19.101-8.51c0.02-3.713-7.406-6.908-18.173-8.588c12.994-1.7,22.061-5.403,22.061-9.741
				c0-4.035-7.533-7.513-18.983-9.311c14.049-1.964,23.761-6.028,23.8-10.796c0.02-5.608-13.229-10.376-31.274-12.017v1.925
				c14.313,1.544,24.611,5.481,24.572,10.053c-0.02,5.168-13.16,9.399-30.415,10.2l1.084-31.098h4.524v-8.021h8.764v8.813
				c30.971,14.284,54.215,9.868,54.215,9.868c52.739,0,54.224-43.966,54.224-43.966C244.176,99.113,222.193,84.429,222.193,84.429z
				 M97.692,158.848c0-3.889,8.608-7.23,20.713-8.578l5.325,0.322l0.86,17.303C109.318,167.124,97.692,163.391,97.692,158.848z
				 M101.053,176.786c0.02-3.507,7.865-6.448,18.817-7.591v-0.078l4.787,0.322l0.782,15.632
				C111.605,184.339,101.014,180.89,101.053,176.786z M104.541,193.063c0-3.078,6.878-5.725,16.531-6.751v-0.156l4.445,0.274
				l0.684,13.795C113.949,199.658,104.541,196.708,104.541,193.063z M108.341,206.605c0-2.482,5.462-4.582,13.141-5.491l4.778,0.303
				l0.557,11.07C116.421,212.184,108.341,209.663,108.341,206.605z M113.549,217.733c0-1.954,4.25-3.634,10.268-4.328l3.048,0.137
				l0.44,8.891C119.479,222.012,113.549,220.078,113.549,217.733z M147.021,217.733c0,2.306-5.862,4.279-13.581,4.68l0.313-8.93
				l2.325-0.176C142.469,213.932,147.021,215.691,147.021,217.733z M150.334,206.605c0,2.843-7.093,5.247-16.541,5.843l0.381-10.982
				l3.771-0.205C145.175,202.208,150.334,204.231,150.334,206.605z M155.824,193.063c0,3.322-7.865,6.087-18.544,6.986l-0.401-0.059
				l-0.039,0.098l-2.628,0.166l0.489-13.727l4.524-0.205C148.878,187.338,155.824,189.908,155.824,193.063z M159.215,177.128
				c0,4.162-10.63,7.464-24.484,7.972l0.557-15.671l4.748-0.264v0.088C151.232,170.484,159.273,173.562,159.215,177.128z
				 M141.863,150.319c12.027,1.339,20.654,4.641,20.654,8.529c0,4.602-11.763,8.344-27.181,9.067l0.606-17.264L141.863,150.319z
				 M130.49,64.439c-6.331,0-11.431-5.11-11.431-11.421c0-6.321,5.1-11.441,11.431-11.441c6.292,0,11.402,5.12,11.402,11.441
				C141.892,59.329,136.782,64.439,130.49,64.439z"/>
		</g>
	</g>
</g>
</svg>